<?xml version="1.0" encoding="UTF-8"?>
<!DOCTYPE svg PUBLIC "-//W3C//DTD SVG 1.1//EN" "http://www.w3.org/Graphics/SVG/1.1/DTD/svg11.dtd">
<!-- Creator: CorelDRAW 2018 (64 Bit) -->
<svg xmlns="http://www.w3.org/2000/svg" xml:space="preserve" width="329px" height="416px" version="1.1" style="shape-rendering:geometricPrecision; text-rendering:geometricPrecision; image-rendering:optimizeQuality; fill-rule:evenodd; clip-rule:evenodd"
viewBox="0 0 32.32 40.86"
 xmlns:xlink="http://www.w3.org/1999/xlink">
 <defs>
  <style type="text/css">
   <![CDATA[
    .fil0 {fill:#009BBB}
   ]]>
  </style>
 </defs>
 <g id="Camada_x0020_1">
  <metadata id="CorelCorpID_0Corel-Layer"/>
  <path class="fil0" d="M0 40.86c0.94,-3.22 1.88,-6.44 3.11,-9.66 1.22,-3.21 2.73,-6.42 4.07,-8.92 1.34,-2.5 2.52,-4.3 4.14,-6.41 1.62,-2.11 3.68,-4.54 5.44,-6.33 1.77,-1.8 3.24,-2.98 4.77,-4.08 1.52,-1.1 3.09,-2.11 4.54,-2.86 1.46,-0.75 2.8,-1.25 3.86,-1.63 1.07,-0.39 1.85,-0.68 2.24,-0.83 0.39,-0.14 0.39,-0.14 -5.04,-0.14 -5.42,0 -16.28,0 -21.7,0 -5.43,0 -5.43,0 -5.43,0 0,0 0,0 0,6.81 0,6.81 0,20.43 0,34.05z"/>
 </g>
</svg>
