<?xml version="1.0" encoding="UTF-8"?>
<!DOCTYPE svg PUBLIC "-//W3C//DTD SVG 1.1//EN" "http://www.w3.org/Graphics/SVG/1.1/DTD/svg11.dtd">
<!-- Creator: CorelDRAW 2018 (64 Bit) -->
<svg xmlns="http://www.w3.org/2000/svg" xml:space="preserve" width="1878px" height="1162px" version="1.1" style="shape-rendering:geometricPrecision; text-rendering:geometricPrecision; image-rendering:optimizeQuality; fill-rule:evenodd; clip-rule:evenodd"
viewBox="0 0 1878.02 1161.64"
 xmlns:xlink="http://www.w3.org/1999/xlink">
 <defs>
  <style type="text/css">
   <![CDATA[
    .str0 {stroke:#009CB8;stroke-width:22.98;stroke-miterlimit:22.9256}
    .fil1 {fill:none}
    .fil0 {fill:#009CB8;fill-rule:nonzero}
   ]]>
  </style>
 </defs>
 <g id="Camada_x0020_1">
  <metadata id="CorelCorpID_0Corel-Layer"/>
  <path class="fil0" d="M31.56 419.98l150.87 0 0 18.07 -27.83 0c-9.68,0 -16.03,1.71 -19.04,5.12 -2.93,3.42 -4.4,11.72 -4.4,24.9l0 108.63 160.14 0 0 -108.63c0,-13.67 -1.38,-22.05 -4.15,-25.22 -2.84,-3.18 -9.44,-4.8 -19.77,-4.8l-25.88 0 0 -18.07 150.87 0 0 18.07 -27.51 0c-6.91,0 -11.71,0.89 -14.48,2.6 -2.85,1.79 -5.13,4.8 -6.84,9.03 -0.97,2.77 -1.46,9.77 -1.46,21.24l0 253.23c0,12.29 1.06,19.61 3.09,22.22 4.15,5.37 11.72,8.05 22.79,8.05l24.41 0 0 18.07 -150.87 0 0 -18.07 25.88 0c10.17,0 17.17,-2.76 20.83,-8.3 2.04,-3.01 3.09,-10.98 3.09,-23.76l0 -122.22 -160.14 0 0 124.09c0,12.37 0.98,19.78 2.85,22.38 3.99,5.21 10.91,7.81 20.59,7.81l27.83 0 0 18.07 -150.87 0 0 -18.07 28.81 0c5.13,0 9.11,-1.06 12.12,-3.09 3.1,-2.03 5.29,-4.96 6.68,-8.79 0.81,-2.6 1.22,-9.28 1.22,-20.26l0 -254.21c0,-13.18 -1.47,-21.48 -4.4,-24.9 -2.93,-3.41 -9.36,-5.12 -19.2,-5.12l-25.23 0 0 -18.07zm608.83 242.17l-159.65 0c0.81,34.01 7.16,58.09 19.04,72.09 13.67,15.71 31,23.6 52.16,23.6 31.08,0 56.06,-17.74 74.94,-53.22l15.46 6.67c-23.19,45 -56.71,67.54 -100.49,67.54 -29.86,0 -55.01,-10.82 -75.43,-32.38 -20.43,-21.57 -30.6,-49.15 -30.6,-82.76 0,-36.21 10.01,-65.42 30.11,-87.72 20.1,-22.29 44.83,-33.44 74.21,-33.44 21.56,0 40.2,5.53 55.98,16.68 15.71,11.07 27.51,27.02 35.48,47.77 5.54,14.56 8.47,32.95 8.79,55.17zm-159.65 -17.09l96.67 0c5.69,0 10.17,-1.95 13.34,-5.86 3.18,-3.83 4.72,-10.42 4.72,-19.77 0,-17.42 -5.45,-32.23 -16.27,-44.43 -10.91,-12.21 -23.68,-18.31 -38.49,-18.31 -16.52,0 -30.51,7.32 -41.99,22.05 -11.47,14.73 -17.49,36.86 -17.98,66.32zm430.38 102.53l8.54 13.34c-11.72,11.96 -24.66,17.9 -38.9,17.9 -10.9,0 -20.01,-2.93 -27.5,-8.78 -7.4,-5.95 -13.91,-16.2 -19.53,-31.01 -15.05,15.87 -28.24,26.45 -39.63,31.82 -11.39,5.29 -25.06,7.97 -41.01,7.97 -22.78,0 -40.12,-4.96 -51.91,-14.81 -11.89,-9.84 -17.82,-22.46 -17.82,-37.83 0,-23.2 13.58,-42.48 40.68,-57.86 27.1,-15.3 63.15,-25.55 108.23,-30.6l0 -33.6c0,-11.96 -4.8,-22.22 -14.49,-30.76 -9.68,-8.55 -21.97,-12.78 -36.86,-12.78 -13.75,0 -25.63,2.85 -35.64,8.63 -7.08,4.23 -10.66,8.46 -10.66,12.61 0,2.36 1.95,6.1 5.78,11.23 4.63,6.35 6.91,11.96 6.91,16.93 0,7.16 -2.28,13.02 -6.91,17.49 -4.56,4.56 -10.58,6.84 -17.99,6.84 -7.97,0 -14.56,-2.69 -19.85,-8.14 -5.29,-5.37 -7.98,-12.37 -7.98,-20.75 0,-15.79 8.87,-30.27 26.61,-43.29 17.74,-13.1 41.01,-19.61 69.74,-19.61 26.61,0 46.87,5.7 60.87,17.17 13.99,11.55 20.99,25.63 20.99,42.15l0 121.89c0,10.75 1.71,18.72 5.21,23.77 3.5,5.28 8.05,7.89 13.59,7.89 6.18,0 12.69,-2.61 19.53,-7.81zm-78.85 -94.23c-40.12,5.53 -68.52,14.64 -85.28,27.18 -12.45,9.6 -18.72,23.11 -18.72,40.6 0,12.29 3.26,21.81 9.69,28.72 6.51,6.92 14.97,10.42 25.38,10.42 18.64,0 34.75,-7.16 48.42,-21.4 13.67,-14.24 20.51,-32.06 20.51,-53.54l0 -31.98zm199.28 -237.28l0 323.37c0,4.39 1.38,7.81 4.06,10.17 3.91,3.17 8.71,4.8 14.41,4.8l23.51 0 0 18.07 -126.45 0 0 -18.07 22.3 0c7.32,0 12.77,-1.71 16.27,-5.21 3.58,-3.5 5.37,-8.46 5.37,-14.81l0 -271.37c0,-7.9 -2.11,-13.75 -6.43,-17.33 -5.94,-5.13 -13.18,-7.65 -21.8,-7.65l-20.1 0 0 -18.07 88.86 -3.9z"/>
  <g id="_1122077401856">
   <path class="fil0" d="M768.39 103.6l858.01 0 21.01 400.06 -49.83 0c-32.48,-235.45 -117.23,-353.17 -254.49,-353.17 -27.6,0 -46.65,4.89 -56.91,14.41 -10.26,9.53 -15.39,25.16 -15.39,47.14l0 845.31c0,17.1 5.13,29.8 15.15,37.86 10.01,8.06 26.37,12.21 49.33,12.21l106.98 0 0 54.22 -492.39 0 0 -54.22 121.39 0c16.36,0 28.57,-4.15 37.12,-12.21 8.55,-8.06 12.95,-18.81 12.95,-32.24l0 -857.53c0,-18.07 -5.38,-31.75 -16.37,-41.03 -10.74,-9.28 -28.33,-13.92 -52.51,-13.92 -68.63,0 -126.02,32.73 -171.94,98.19 -37.86,53.97 -64.97,138.97 -81.58,254.98l-54.22 0 23.69 -400.06z"/>
  </g>
  <g id="_1122077401696">
   <path class="fil0" d="M553.94 809.97l190.86 0 4.68 88.99 -11.09 0c-7.22,-52.37 -26.08,-78.56 -56.61,-78.56 -6.14,0 -10.38,1.09 -12.66,3.21 -2.28,2.12 -3.42,5.59 -3.42,10.48l0 188.04c0,3.8 1.14,6.63 3.37,8.42 2.23,1.79 5.86,2.72 10.97,2.72l23.8 0 0 12.06 -109.53 0 0 -12.06 27 0c3.64,0 6.36,-0.93 8.26,-2.72 1.9,-1.79 2.88,-4.18 2.88,-7.17l0 -190.75c0,-4.03 -1.2,-7.07 -3.64,-9.13 -2.39,-2.07 -6.3,-3.1 -11.68,-3.1 -15.27,0 -28.04,7.28 -38.25,21.84 -8.42,12.01 -14.45,30.92 -18.15,56.72l-12.06 0 5.27 -88.99zm190.65 86.06l53.78 -2.61 0 60.2c5.76,-19.83 12.66,-34.77 20.7,-44.93 8.1,-10.16 18.04,-15.27 29.94,-15.27 8.09,0 14.56,2.45 19.39,7.39 4.84,4.89 7.23,11.52 7.23,19.72 0,6.68 -1.63,11.9 -4.84,15.59 -3.26,3.7 -7.28,5.55 -12.17,5.55 -4.78,0 -8.63,-1.58 -11.57,-4.79 -2.88,-3.15 -4.34,-7.44 -4.34,-12.87 0,-3.48 0.81,-6.74 2.49,-9.84 1.58,-2.77 2.39,-4.4 2.39,-4.94 0,-1.57 -1.03,-2.39 -3.04,-2.39 -4.34,0 -9.23,2.55 -14.77,7.66 -7.61,7.12 -13.48,16.9 -17.61,29.28 -6.35,19.35 -9.56,34.77 -9.56,46.35l0 32c0,3.58 1.25,6.35 3.8,8.26 2.56,1.9 6.96,2.88 13.1,2.88l18.96 0 0 12.06 -92.91 0 0 -12.06 14.84 0c4.99,0 8.8,-0.98 11.35,-2.94 2.56,-1.95 3.8,-4.35 3.8,-7.12l0 -94.91c0,-7.23 -1.52,-12.5 -4.61,-15.86 -3.1,-3.32 -7.5,-5 -13.26,-5l-13.09 0 0 -11.41zm198.14 -2.61l0 98.99c0,12.11 3.04,21.46 9.18,28.03 6.08,6.58 13.96,9.89 23.63,9.89 11.85,0 22.01,-4.83 30.32,-14.45 8.31,-9.62 12.49,-21.68 12.49,-36.13l0 -56.01c0,-5.11 -1.84,-9.08 -5.54,-11.9 -3.64,-2.83 -10.7,-4.4 -21.19,-4.73l0 -11.08 52.49 -2.61 0 122.35c0,5.6 1.57,9.94 4.72,12.99 3.21,2.98 7.61,4.51 13.31,4.51l9.35 0 0 10.75 -49.88 0.98 -3.26 -29.01c-8.91,10.48 -17.87,18.36 -26.89,23.69 -9.02,5.27 -18.15,7.93 -27.38,7.93 -13.48,0 -24.78,-4.51 -33.9,-13.53 -9.24,-8.96 -13.86,-24.12 -13.86,-45.47l0 -64.93c0,-5.7 -2.28,-10.1 -6.84,-13.04 -3.15,-2.17 -9.67,-3.31 -19.56,-3.53l0 -11.08 52.81 -2.61z"/>
  </g>
  <g id="_1122077402432">
   <path class="fil0" d="M1322.97 361.33l169.05 -7.82 0 344.13c23.62,-30.45 49.02,-53.25 76.22,-68.4 27.2,-15.15 55.87,-22.64 86.32,-22.64 28.67,0 54.56,6.84 77.69,20.52 17.91,10.75 33.06,29.65 45.76,56.68 12.55,27.04 18.9,58.96 18.9,95.77l0 212.05c0,13.68 3.42,23.62 10.42,29.8 7,6.19 17.92,9.29 32.74,9.29l37.95 0 0 36.15 -241.37 0 0 -36.15 26.87 0c20.52,0 34.69,-3.26 42.51,-9.78 7.82,-6.51 11.72,-16.28 11.72,-29.31l0 -212.05c0,-37.3 -9.12,-66.29 -27.19,-86.97 -18.08,-20.85 -41.21,-31.27 -69.39,-31.27 -21.98,0 -42.5,5.86 -61.4,17.58 -18.89,11.73 -35.01,29.65 -48.04,53.59 -13.19,24.1 -19.71,49.35 -19.71,76.06l0 178.34c0,15.79 3.42,27.19 10.1,33.87 6.68,6.68 17.59,9.94 32.9,9.94l38.11 0 0 36.15 -237.46 0 0 -36.15 27.2 0c18.4,0 31.59,-3.59 39.25,-10.75 7.82,-7.17 11.73,-18.08 11.73,-33.06l0 -532.74c0,-19.06 -5.05,-33.23 -14.99,-42.67 -9.93,-9.28 -24.43,-14.01 -43.48,-14.01l-32.41 0 0 -36.15z"/>
  </g>
  <polyline class="fil1 str0" points="0,284.24 147.92,284.24 183.07,198.08 208.94,279.23 305.16,279.23 333.15,325.18 397.06,55.22 455.19,363.23 493.24,287.14 761.09,287.14 "/>
 </g>
</svg>
