<?xml version="1.0" encoding="UTF-8"?>
<!DOCTYPE svg PUBLIC "-//W3C//DTD SVG 1.1//EN" "http://www.w3.org/Graphics/SVG/1.1/DTD/svg11.dtd">
<!-- Creator: CorelDRAW 2018 (64 Bit) -->
<svg xmlns="http://www.w3.org/2000/svg" xml:space="preserve" width="718px" height="117px" version="1.1" style="shape-rendering:geometricPrecision; text-rendering:geometricPrecision; image-rendering:optimizeQuality; fill-rule:evenodd; clip-rule:evenodd"
viewBox="0 0 713.52 116.06"
 xmlns:xlink="http://www.w3.org/1999/xlink">
 <defs>
  <style type="text/css">
   <![CDATA[
    .str0 {stroke:white;stroke-width:7.96;stroke-miterlimit:22.9256}
    .fil0 {fill:none}
   ]]>
  </style>
 </defs>
 <g id="Camada_x0020_1">
  <metadata id="CorelCorpID_0Corel-Layer"/>
  <path class="fil0 str0" d="M0 92.86c59.01,0 118.01,0 158.78,0 40.77,0 63.32,0 74.59,0 11.27,0 11.27,0 13.42,-4.48 2.16,-4.47 6.47,-13.42 8.62,-17.9 2.16,-4.47 2.16,-4.47 4.48,-0.16 2.32,4.31 6.96,12.93 9.28,17.4 2.32,4.48 2.32,4.81 8.78,4.97 6.47,0.17 19.39,0.17 25.86,-0.16 6.46,-0.33 6.46,-1 8.13,1.56 1.66,2.55 4.99,8.31 6.48,11.3 1.49,2.98 1.15,3.18 5.83,-14.83 4.68,-18.01 14.38,-54.23 19.18,-72.61 4.8,-18.39 4.69,-18.93 9.82,0.15 5.14,19.09 15.51,57.8 20.7,76.68 5.18,18.89 5.18,17.93 5.14,17.45 -0.04,-0.48 -0.12,-0.48 1.7,-3.7 1.82,-3.22 5.54,-9.67 7.53,-12.82 1.99,-3.15 2.25,-3 56.08,-2.92 53.82,0.07 161.23,0.07 215.01,0.07 53.78,0 53.95,0 54.11,0"/>
 </g>
</svg>
